name Run_400 02_newCOP3_v24.mot
datacolumns 19
datarows 136
range 1.3575 1.425
DataType=double
version=3
OpenSimVersion=4.3-2021-08-27-4bc7ad9
endheader
time	R_ground_force_vx	R_ground_force_vy	R_ground_force_vz	R_ground_force_px	R_ground_force_py	R_ground_force_pz	L_ground_force_vx	L_ground_force_vy	L_ground_force_vz	L_ground_force_px	L_ground_force_py	L_ground_force_pz	R_ground_torque_x	R_ground_torque_y	R_ground_torque_z	L_ground_torque_x	L_ground_torque_y	L_ground_torque_z
1.3575	0	0	0	0	0	0	0	0	0	0	0	0	0	0	0	0	0	0
1.358	0	0	0	0	0	0	0	0	0	0	0	0	0	0	0	0	0	0
1.3585	0	0	0	0	0	0	0	0	0	0	0	0	0	0	0	0	0	0
1.359	0	0	0	0	0	0	0	0	0	0	0	0	0	0	0	0	0	0
1.3595	0	0	0	0	0	0	0	0	0	0	0	0	0	0	0	0	0	0
1.36	0	0	0	0	0	0	0	0	0	0	0	0	0	0	0	0	0	0
1.3605	0	0	0	0	0	0	0	0	0	0	0	0	0	0	0	0	0	0
1.361	0	0	0	0	0	0	0	0	0	0	0	0	0	0	0	0	0	0
1.3615	0	0	0	0	0	0	0	0	0	0	0	0	0	0	0	0	0	0
1.362	0	0	0	0	0	0	0	0	0	0	0	0	0	0	0	0	0	0
1.3625	0	0	0	0	0	0	0	0	0	0	0	0	0	0	0	0	0	0
1.363	0	0	0	0	0	0	0	0	0	0	0	0	0	0	0	0	0	0
1.3635	0	0	0	0	0	0	0	0	0	0	0	0	0	0	0	0	0	0
1.364	0	0	0	0	0	0	0	0	0	0	0	0	0	0	0	0	0	0
1.3645	0	0	0	0	0	0	0	0	0	0	0	0	0	0	0	0	0	0
1.365	0	0	0	0	0	0	0	0	0	0	0	0	0	0	0	0	0	0
1.3655	0	0	0	0	0	0	0	0	0	0	0	0	0	0	0	0	0	0
1.366	0	0	0	0	0	0	0	0	0	0	0	0	0	0	0	0	0	0
1.3665	0	0	0	0	0	0	0	0	0	0	0	0	0	0	0	0	0	0
1.367	0	0	0	0	0	0	0	0	0	0	0	0	0	0	0	0	0	0
1.3675	0	0	0	0	0	0	0	0	0	0	0	0	0	0	0	0	0	0
1.368	0	0	0	0	0	0	0	0	0	0	0	0	0	0	0	0	0	0
1.3685	0	0	0	0	0	0	0	0	0	0	0	0	0	0	0	0	0	0
1.369	0	0	0	0	0	0	0	0	0	0	0	0	0	0	0	0	0	0
1.3695	0	0	0	0	0	0	0	0	0	0	0	0	0	0	0	0	0	0
1.37	0	0	0	0	0	0	0	0	0	0	0	0	0	0	0	0	0	0
1.3705	0	0	0	0	0	0	0	0	0	0	0	0	0	0	0	0	0	0
1.371	0	0	0	0	0	0	0	0	0	0	0	0	0	0	0	0	0	0
1.3715	0	0	0	0	0	0	0	0	0	0	0	0	0	0	0	0	0	0
1.372	0	0	0	0	0	0	0	0	0	0	0	0	0	0	0	0	0	0
1.3725	0	0	0	0	0	0	0	0	0	0	0	0	0	0	0	0	0	0
1.373	0	0	0	0	0	0	0	0	0	0	0	0	0	0	0	0	0	0
1.3735	0	0	0	0	0	0	0	0	0	0	0	0	0	0	0	0	0	0
1.374	0	0	0	0	0	0	0	0	0	0	0	0	0	0	0	0	0	0
1.3745	0	0	0	0	0	0	0	0	0	0	0	0	0	0	0	0	0	0
1.375	0	0	0	0	0	0	0	0	0	0	0	0	0	0	0	0	0	0
1.3755	0	0	0	0	0	0	0	0	0	0	0	0	0	0	0	0	0	0
1.376	0	0	0	0	0	0	0	0	0	0	0	0	0	0	0	0	0	0
1.3765	0	0	0	0	0	0	0	0	0	0	0	0	0	0	0	0	0	0
1.377	0	0	0	0	0	0	0	0	0	0	0	0	0	0	0	0	0	0
1.3775	0	0	0	0	0	0	0	0	0	0	0	0	0	0	0	0	0	0
1.378	0	0	0	0	0	0	0	0	0	0	0	0	0	0	0	0	0	0
1.3785	0	0	0	0	0	0	0	0	0	0	0	0	0	0	0	0	0	0
1.379	0	0	0	0	0	0	0	0	0	0	0	0	0	0	0	0	0	0
1.3795	0	0	0	0	0	0	0	0	0	0	0	0	0	0	0	0	0	0
1.38	0	0	0	0	0	0	0	0	0	0	0	0	0	0	0	0	0	0
1.3805	0	0	0	0	0	0	0	0	0	0	0	0	0	0	0	0	0	0
1.381	0	0	0	0	0	0	0	0	0	0	0	0	0	0	0	0	0	0
1.3815	0	0	0	0	0	0	0	0	0	0	0	0	0	0	0	0	0	0
1.382	0	0	0	0	0	0	0	0	0	0	0	0	0	0	0	0	0	0
1.3825	0	0	0	0	0	0	0	0	0	0	0	0	0	0	0	0	0	0
1.383	0	0	0	0	0	0	0	0	0	0	0	0	0	0	0	0	0	0
1.3835	0	0	0	0	0	0	0	0	0	0	0	0	0	0	0	0	0	0
1.384	0	0	0	0	0	0	0	0	0	0	0	0	0	0	0	0	0	0
1.3845	0	0	0	0	0	0	0	0	0	0	0	0	0	0	0	0	0	0
1.385	0	0	0	0	0	0	0	0	0	0	0	0	0	0	0	0	0	0
1.3855	0	0	0	0	0	0	0	0	0	0	0	0	0	0	0	0	0	0
1.386	0	0	0	0	0	0	0	0	0	0	0	0	0	0	0	0	0	0
1.3865	0	0	0	0	0	0	0	0	0	0	0	0	0	0	0	0	0	0
1.387	0	0	0	0	0	0	0	0	0	0	0	0	0	0	0	0	0	0
1.3875	0	0	0	0	0	0	0	0	0	0	0	0	0	0	0	0	0	0
1.388	0	0	0	0	0	0	0	0	0	0	0	0	0	0	0	0	0	0
1.3885	0	0	0	0	0	0	0	0	0	0	0	0	0	0	0	0	0	0
1.389	0	0	0	0	0	0	0	0	0	0	0	0	0	0	0	0	0	0
1.3895	0	0	0	0	0	0	0	0	0	0	0	0	0	0	0	0	0	0
1.39	0	0	0	0	0	0	0	0	0	0	0	0	0	0	0	0	0	0
1.3905	0	0	0	0	0	0	0	0	0	0	0	0	0	0	0	0	0	0
1.391	0	0	0	0	0	0	0	0	0	0	0	0	0	0	0	0	0	0
1.3915	0	0	0	0	0	0	0	0	0	0	0	0	0	0	0	0	0	0
1.392	0	0	0	0	0	0	0	0	0	0	0	0	0	0	0	0	0	0
1.3925	0	0	0	0	0	0	0	0	0	0	0	0	0	0	0	0	0	0
1.393	0	0	0	0	0	0	0	0	0	0	0	0	0	0	0	0	0	0
1.3935	0	0	0	0	0	0	0	0	0	0	0	0	0	0	0	0	0	0
1.394	0	0	0	0	0	0	0	0	0	0	0	0	0	0	0	0	0	0
1.3945	0	0	0	0	0	0	0	0	0	0	0	0	0	0	0	0	0	0
1.395	0	0	0	0	0	0	0	0	0	0	0	0	0	0	0	0	0	0
1.3955	0	0	0	0	0	0	0	0	0	0	0	0	0	0	0	0	0	0
1.396	0	0	0	0	0	0	0	0	0	0	0	0	0	0	0	0	0	0
1.3965	0	0	0	0	0	0	0	0	0	0	0	0	0	0	0	0	0	0
1.397	0	0	0	0	0	0	0	0	0	0	0	0	0	0	0	0	0	0
1.3975	0	0	0	0	0	0	0	0	0	0	0	0	0	0	0	0	0	0
1.398	0	0	0	0	0	0	0	0	0	0	0	0	0	0	0	0	0	0
1.3985	0	0	0	0	0	0	0	0	0	0	0	0	0	0	0	0	0	0
1.399	0	0	0	0	0	0	0	0	0	0	0	0	0	0	0	0	0	0
1.3995	0	0	0	0	0	0	0	0	0	0	0	0	0	0	0	0	0	0
1.4	0	0	0	0	0	0	0	0	0	0	0	0	0	0	0	0	0	0
1.4005	0	0	0	0	0	0	0	0	0	0	0	0	0	0	0	0	0	0
1.401	0	0	0	0	0	0	0	0	0	0	0	0	0	0	0	0	0	0
1.4015	0	0	0	0	0	0	0	0	0	0	0	0	0	0	0	0	0	0
1.402	0	0	0	0	0	0	0	0	0	0	0	0	0	0	0	0	0	0
1.4025	0	0	0	0	0	0	0	0	0	0	0	0	0	0	0	0	0	0
1.403	0	0	0	0	0	0	0	0	0	0	0	0	0	0	0	0	0	0
1.4035	0	0	0	0	0	0	0	0	0	0	0	0	0	0	0	0	0	0
1.404	-13.444582	52.599998	-15.201897	1.099324	0	-0.289818	0	0	0	0	0	0	-0	4.372845	-0	0	0	0
1.4045	-14.340777	56.38715	-15.776265	1.099423	0	-0.29035	0	0	0	0	0	0	-0	4.456059	-0	0	0	0
1.405	-15.281601	60.402908	-16.358583	1.099493	0	-0.290815	0	0	0	0	0	0	-0	4.537396	-0	0	0	0
1.4055	-16.267662	64.65671500000001	-16.94828	1.099535	0	-0.291221	0	0	0	0	0	0	-0	4.616744	-0	0	0	0
1.406	-17.299446	69.158028	-17.544743	1.099551	0	-0.291577	0	0	0	0	0	0	-0	4.693992	-0	0	0	0
1.4065	-18.377306	73.916267	-18.147305	1.099543	0	-0.29189	0	0	0	0	0	0	-0	4.76903	-0	0	0	0
1.407	-19.50145	78.940804	-18.755259	1.099512	0	-0.292167	0	0	0	0	0	0	-0	4.841746	-0	0	0	0
1.4075	-20.67193	84.240883	-19.367844	1.09946	0	-0.292414	0	0	0	0	0	0	-0	4.912034	-0	0	0	0
1.408	-21.888638	89.82560700000001	-19.984255	1.099388	0	-0.292636	0	0	0	0	0	0	-0	4.979784	-0	0	0	0
1.4085	-23.151287	95.70388	-20.60363	1.099296	0	-0.292836	0	0	0	0	0	0	-0	5.044889	-0	0	0	0
1.409	-24.459412	101.884346	-21.225065	1.099185	0	-0.293021	0	0	0	0	0	0	-0	5.107245	-0	0	0	0
1.4095	-25.812357	108.375381	-21.847599	1.099056	0	-0.293192	0	0	0	0	0	0	-0	5.166748	-0	0	0	0
1.41	-27.20927	115.185005	-22.470224	1.09891	0	-0.293354	0	0	0	0	0	0	-0	5.223294	-0	0	0	0
1.4105	-28.649097	122.320847	-23.091881	1.098747	0	-0.293508	0	0	0	0	0	0	-0	5.276785	-0	0	0	0
1.411	-30.130575	129.790085	-23.711458	1.098567	0	-0.293658	0	0	0	0	0	0	-0	5.327122	-0	0	0	0
1.4115	-31.652229	137.599426	-24.327797	1.09837	0	-0.293805	0	0	0	0	0	0	-0	5.374208	-0	0	0	0
1.412	-33.212379	145.755005	-24.93969	1.098157	0	-0.293951	0	0	0	0	0	0	-0	5.417951	-0	0	0	0
1.4125	-34.809128	154.262405	-25.545879	1.097927	0	-0.294098	0	0	0	0	0	0	-0	5.458258	-0	0	0	0
1.413	-36.440365	163.126526	-26.145061	1.097681	0	-0.294247	0	0	0	0	0	0	-0	5.495042	-0	0	0	0
1.4135	-38.103771	172.351624	-26.735891	1.097418	0	-0.294398	0	0	0	0	0	0	-0	5.528216	-0	0	0	0
1.414	-39.796833	181.941177	-27.316978	1.097138	0	-0.294553	0	0	0	0	0	0	-0	5.557699	-0	0	0	0
1.4145	-41.516827	191.897919	-27.886889	1.096842	0	-0.294712	0	0	0	0	0	0	-0	5.583411	-0	0	0	0
1.415	-43.260857	202.22377	-28.444153	1.096528	0	-0.294876	0	0	0	0	0	0	-0	5.605275	-0	0	0	0
1.4155	-45.025841	212.919815	-28.987265	1.096197	0	-0.295045	0	0	0	0	0	0	-0	5.623219	-0	0	0	0
1.416	-46.808529	223.986237	-29.514688	1.095849	0	-0.29522	0	0	0	0	0	0	-0	5.637173	-0	0	0	0
1.4165	-48.605537	235.422302	-30.024855	1.095483	0	-0.2954	0	0	0	0	0	0	-0	5.647074	-0	0	0	0
1.417	-50.413342	247.226395	-30.516171	1.095099	0	-0.295586	0	0	0	0	0	0	-0	5.652859	-0	0	0	0
1.4175	-52.22831	259.395874	-30.987024	1.094697	0	-0.295777	0	0	0	0	0	0	-0	5.654471	-0	0	0	0
1.418	-54.046722	271.927216	-31.435787	1.094277	0	-0.295974	0	0	0	0	0	0	-0	5.651857	-0	0	0	0
1.4185	-55.864788	284.815857	-31.860813	1.093838	0	-0.296177	0	0	0	0	0	0	-0	5.644969	-0	0	0	0
1.419	-57.678692	298.056244	-32.260456	1.093381	0	-0.296385	0	0	0	0	0	0	-0	5.633762	-0	0	0	0
1.4195	-59.484589	311.641876	-32.633064	1.092905	0	-0.296598	0	0	0	0	0	0	-0	5.618197	-0	0	0	0
1.42	-61.278664	325.565308	-32.97699	1.09241	0	-0.296815	0	0	0	0	0	0	-0	5.598239	-0	0	0	0
1.4205	-63.057156	339.818024	-33.290596	1.091896	0	-0.297038	0	0	0	0	0	0	-0	5.573857	-0	0	0	0
1.421	-64.81637600000001	354.390656	-33.572262	1.091363	0	-0.297264	0	0	0	0	0	0	-0	5.545027	-0	0	0	0
1.4215	-66.552757	369.272797	-33.820393	1.090811	0	-0.297495	0	0	0	0	0	0	-0	5.511729	-0	0	0	0
1.422	-68.26288599999999	384.453217	-34.033417	1.09024	0	-0.297729	0	0	0	0	0	0	-0	5.473947	-0	0	0	0
1.4225	-69.943527	399.9198	-34.209801	1.089651	0	-0.297966	0	0	0	0	0	0	-0	5.431672	-0	0	0	0
1.423	-71.591675	415.659485	-34.348053	1.089043	0	-0.298206	0	0	0	0	0	0	-0	5.384899	-0	0	0	0
1.4235	-73.204582	431.658447	-34.446735	1.088416	0	-0.298448	0	0	0	0	0	0	-0	5.333629	-0	0	0	0
1.424	-74.779793	447.902161	-34.504459	1.08777	0	-0.298692	0	0	0	0	0	0	-0	5.277869	-0	0	0	0
1.4245	-76.315163	464.375183	-34.519909	1.087107	0	-0.298938	0	0	0	0	0	0	-0	5.21763	-0	0	0	0
1.425	-77.80892900000001	481.061554	-34.491829	1.086425	0	-0.299186	0	0	0	0	0	0	-0	5.152929	-0	0	0	0
